<svg xmlns="http://www.w3.org/2000/svg" id="canvas" viewBox="280.702 268.845 772.078 191.442"><path d="M 283.88,298.83 C 283.50 300.36, 283.79 301.98, 284.18 306.22 C 284.57 310.45, 285.19 313.44, 285.84 319.99 C 286.49 326.55, 286.86 330.81, 287.44 338.98 C 288.02 347.16, 288.26 351.91, 288.73 360.86 C 289.20 369.80, 289.35 374.77, 289.78 383.71 C 290.22 392.65, 290.45 397.33, 290.91 405.55 C 291.37 413.76, 291.65 417.79, 292.10 424.79 C 292.54 431.79, 292.84 435.16, 293.13 440.53 C 293.41 445.91, 293.09 448.36, 293.52 451.66 C 293.94 454.96, 294.41 456.36, 295.26 457.03 C 296.12 457.69, 297.36 457.10, 297.77 454.98 C 298.19 452.86, 297.83 450.72, 297.35 446.42 C 296.86 442.13, 296.17 439.41, 295.34 433.51 C 294.51 427.62, 294.05 423.89, 293.19 416.94 C 292.34 409.99, 291.86 406.08, 291.07 398.75 C 290.27 391.42, 289.86 387.73, 289.21 380.28 C 288.56 372.83, 288.25 368.96, 287.83 361.50 C 287.42 354.03, 287.12 350.18, 287.14 342.97 C 287.15 335.76, 287.25 332.10, 287.89 325.43 C 288.52 318.76, 288.98 315.48, 290.32 309.62 C 291.65 303.76, 292.48 300.89, 294.56 296.13 C 296.65 291.36, 297.90 289.23, 300.74 285.80 C 303.58 282.36, 305.24 280.98, 308.76 278.95 C 312.28 276.91, 314.27 276.12, 318.33 275.61 C 322.40 275.09, 324.73 275.21, 329.08 276.37 C 333.43 277.52, 335.94 278.59, 340.10 281.37 C 344.26 284.15, 346.52 286.04, 349.89 290.25 C 353.26 294.46, 354.84 297.13, 356.96 302.42 C 359.08 307.71, 359.95 310.88, 360.51 316.71 C 361.07 322.55, 360.96 325.77, 359.75 331.59 C 358.54 337.42, 357.35 340.47, 354.45 345.83 C 351.55 351.20, 349.50 353.87, 345.24 358.42 C 340.98 362.97, 338.22 365.13, 333.15 368.57 C 328.08 372.02, 325.04 373.51, 319.87 375.64 C 314.71 377.77, 311.77 378.41, 307.30 379.22 C 302.83 380.03, 300.57 379.86, 297.52 379.70 C 294.48 379.54, 293.36 379.11, 292.07 378.42 C 290.79 377.72, 290.94 377.00, 291.11 376.23 C 291.27 375.46, 292.16 375.45, 292.92 374.57 C 293.68 373.69, 294.85 372.81, 294.89 371.83 C 294.93 370.85, 294.22 369.72, 293.12 369.66 C 292.02 369.61, 290.53 370.27, 289.42 371.57 C 288.31 372.86, 287.46 374.16, 287.57 376.15 C 287.68 378.14, 288.01 379.97, 289.95 381.50 C 291.90 383.03, 293.70 383.59, 297.31 383.78 C 300.91 383.97, 303.24 383.55, 307.97 382.45 C 312.71 381.35, 315.66 380.61, 321.00 378.28 C 326.33 375.94, 329.43 374.39, 334.66 370.77 C 339.89 367.15, 342.72 364.94, 347.14 360.20 C 351.56 355.46, 353.70 352.69, 356.74 347.07 C 359.79 341.46, 361.06 338.26, 362.36 332.14 C 363.65 326.02, 363.79 322.62, 363.24 316.46 C 362.69 310.31, 361.81 306.98, 359.61 301.37 C 357.42 295.75, 355.80 292.91, 352.26 288.38 C 348.72 283.84, 346.37 281.76, 341.91 278.70 C 337.45 275.64, 334.77 274.39, 329.97 273.08 C 325.16 271.77, 322.47 271.57, 317.89 272.16 C 313.31 272.75, 310.97 273.70, 307.05 276.04 C 303.13 278.37, 301.33 280.03, 298.31 283.83 C 295.29 287.62, 294.05 289.97, 291.96 295.02 C 289.86 300.07, 289.10 303.03, 287.81 309.07 C 286.53 315.11, 286.11 318.43, 285.52 325.21 C 284.94 331.99, 284.85 335.69, 284.87 342.97 C 284.89 350.25, 285.20 354.12, 285.62 361.62 C 286.05 369.12, 286.37 373.00, 286.99 380.47 C 287.60 387.95, 288.00 391.64, 288.70 398.99 C 289.41 406.35, 289.87 410.25, 290.50 417.23 C 291.14 424.21, 291.40 427.96, 291.88 433.90 C 292.36 439.83, 292.48 442.63, 292.91 446.90 C 293.34 451.17, 293.32 453.26, 294.03 455.25 C 294.75 457.25, 295.84 457.64, 296.49 456.86 C 297.15 456.08, 297.43 454.66, 297.31 451.34 C 297.19 448.03, 296.48 445.65, 295.88 440.31 C 295.29 434.96, 294.92 431.60, 294.33 424.62 C 293.73 417.65, 293.43 413.63, 292.90 405.43 C 292.38 397.23, 292.14 392.55, 291.72 383.62 C 291.29 374.68, 291.15 369.72, 290.77 360.76 C 290.39 351.81, 290.22 347.04, 289.82 338.84 C 289.41 330.64, 289.20 326.35, 288.74 319.75 C 288.29 313.15, 288.10 310.09, 287.57 305.85 C 287.04 301.61, 286.85 299.97, 286.11 298.56 C 285.37 297.16, 284.27 297.30, 283.88 298.83" style="stroke: black; fill: black;"/><path d="M 402.95,292.21 C 402.16 293.07, 401.38 293.95, 401.15 296.72 C 400.91 299.49, 401.37 301.23, 401.78 306.06 C 402.18 310.89, 402.48 314.05, 403.17 320.88 C 403.86 327.70, 404.37 331.95, 405.22 340.20 C 406.07 348.44, 406.49 353.32, 407.43 362.10 C 408.36 370.89, 408.87 375.75, 409.89 384.13 C 410.91 392.50, 411.41 396.76, 412.53 403.96 C 413.66 411.16, 414.25 414.49, 415.50 420.13 C 416.76 425.78, 417.39 428.21, 418.81 432.19 C 420.24 436.16, 420.78 437.76, 422.62 440.00 C 424.45 442.23, 425.69 443.00, 428.00 443.36 C 430.31 443.71, 432.01 443.03, 434.17 441.78 C 436.34 440.52, 437.62 439.08, 438.82 437.10 C 440.02 435.12, 440.35 433.22, 440.15 431.88 C 439.96 430.54, 439.08 430.11, 437.84 430.42 C 436.60 430.73, 435.35 432.00, 433.97 433.44 C 432.58 434.88, 432.04 436.30, 430.92 437.61 C 429.80 438.92, 429.40 440.00, 428.37 439.99 C 427.34 439.98, 427.07 439.35, 425.77 437.55 C 424.47 435.75, 423.43 434.59, 421.88 430.98 C 420.33 427.38, 419.44 425.00, 418.01 419.53 C 416.57 414.05, 415.92 410.74, 414.70 403.61 C 413.48 396.48, 412.96 392.22, 411.91 383.88 C 410.87 375.53, 410.36 370.67, 409.49 361.89 C 408.61 353.11, 408.21 348.23, 407.53 339.98 C 406.85 331.73, 406.44 327.47, 406.07 320.65 C 405.69 313.83, 405.68 310.65, 405.65 305.89 C 405.63 301.12, 406.07 299.52, 405.96 296.83 C 405.85 294.14, 405.69 293.36, 405.09 292.43 C 404.49 291.51, 403.74 291.35, 402.95 292.21" style="stroke: black; fill: black;"/><path d="M 503.12,370.50 C 503.05 369.37, 502.38 368.29, 501.05 366.73 C 499.72 365.16, 498.83 364.11, 496.47 362.68 C 494.12 361.26, 492.40 360.20, 489.28 359.61 C 486.16 359.03, 484.32 359.06, 480.86 359.76 C 477.41 360.46, 475.64 361.06, 471.99 363.10 C 468.35 365.14, 466.18 366.45, 462.62 369.98 C 459.07 373.50, 457.07 375.84, 454.20 380.71 C 451.33 385.57, 449.95 388.70, 448.29 394.30 C 446.63 399.90, 445.95 403.23, 445.91 408.70 C 445.88 414.17, 446.36 417.14, 448.12 421.65 C 449.87 426.17, 451.45 428.32, 454.69 431.29 C 457.92 434.25, 460.13 435.33, 464.30 436.48 C 468.47 437.62, 471.07 437.66, 475.55 437.02 C 480.04 436.38, 482.52 435.53, 486.73 433.28 C 490.94 431.02, 493.07 429.37, 496.58 425.74 C 500.10 422.10, 501.82 419.75, 504.30 415.12 C 506.79 410.48, 507.75 407.64, 509.02 402.56 C 510.28 397.49, 510.54 394.50, 510.64 389.74 C 510.74 384.98, 510.45 382.43, 509.53 378.78 C 508.61 375.14, 507.76 373.32, 506.02 371.50 C 504.27 369.68, 502.73 369.26, 500.80 369.68 C 498.86 370.10, 497.31 371.03, 496.35 373.60 C 495.38 376.18, 495.63 378.34, 495.97 382.54 C 496.32 386.74, 496.90 389.49, 498.07 394.61 C 499.25 399.73, 500.08 402.86, 501.84 408.14 C 503.59 413.41, 504.67 416.37, 506.84 421.00 C 509.02 425.62, 510.25 427.79, 512.72 431.26 C 515.19 434.72, 516.56 436.17, 519.19 438.32 C 521.82 440.46, 523.24 441.16, 525.87 441.97 C 528.51 442.79, 529.95 442.79, 532.36 442.40 C 534.77 442.00, 536.17 441.08, 537.91 439.98 C 539.64 438.87, 540.19 438.10, 541.03 436.87 C 541.87 435.64, 542.18 434.72, 542.09 433.85 C 542.00 432.97, 541.40 432.56, 540.59 432.50 C 539.77 432.44, 539.11 432.99, 537.99 433.56 C 536.88 434.12, 536.33 434.51, 535.00 435.32 C 533.66 436.14, 532.89 437.17, 531.33 437.63 C 529.77 438.09, 529.08 438.19, 527.19 437.63 C 525.31 437.07, 524.20 436.57, 521.90 434.85 C 519.60 433.13, 518.10 432.10, 515.70 429.04 C 513.30 425.97, 512.03 423.93, 509.91 419.53 C 507.79 415.14, 506.71 412.22, 505.11 407.08 C 503.52 401.94, 502.79 398.81, 501.93 393.83 C 501.08 388.86, 501.00 386.05, 500.83 382.23 C 500.65 378.40, 500.96 376.74, 501.08 374.72 C 501.19 372.70, 501.08 372.29, 501.43 372.13 C 501.77 371.97, 502.02 372.36, 502.81 373.91 C 503.59 375.46, 504.51 376.70, 505.35 379.87 C 506.18 383.03, 506.92 385.35, 507.00 389.73 C 507.08 394.11, 506.88 397.01, 505.75 401.77 C 504.63 406.53, 503.70 409.23, 501.38 413.54 C 499.05 417.86, 497.39 420.03, 494.12 423.33 C 490.86 426.64, 488.86 428.09, 485.04 430.09 C 481.22 432.08, 478.98 432.76, 475.02 433.32 C 471.07 433.89, 468.85 433.84, 465.25 432.91 C 461.65 431.99, 459.84 431.18, 457.03 428.69 C 454.21 426.20, 452.76 424.45, 451.16 420.45 C 449.57 416.46, 449.01 413.77, 449.03 408.72 C 449.05 403.67, 449.67 400.45, 451.27 395.19 C 452.87 389.93, 454.25 386.92, 457.03 382.42 C 459.81 377.91, 461.80 375.77, 465.19 372.67 C 468.58 369.57, 470.70 368.49, 473.98 366.92 C 477.27 365.36, 478.86 365.08, 481.63 364.84 C 484.40 364.59, 485.52 365.00, 487.84 365.70 C 490.16 366.40, 491.25 367.30, 493.22 368.35 C 495.18 369.41, 496.02 370.17, 497.66 370.98 C 499.31 371.79, 500.35 372.49, 501.44 372.40 C 502.53 372.30, 503.20 371.63, 503.12 370.50" style="stroke: black; fill: black;"/><path d="M 605.77,366.97 C 605.45 365.71, 604.52 364.30, 602.59 362.68 C 600.66 361.05, 599.24 360.12, 596.10 358.82 C 592.96 357.53, 590.78 356.78, 586.88 356.20 C 582.99 355.62, 580.78 355.60, 576.63 355.94 C 572.49 356.28, 570.20 356.78, 566.14 357.90 C 562.07 359.02, 559.75 359.69, 556.31 361.55 C 552.87 363.40, 550.96 364.56, 548.92 367.17 C 546.89 369.77, 546.20 371.62, 546.13 374.55 C 546.07 377.49, 546.50 379.19, 548.61 381.86 C 550.71 384.53, 552.67 385.56, 556.67 387.88 C 560.67 390.21, 563.39 391.29, 568.59 393.49 C 573.80 395.68, 577.04 396.64, 582.69 398.84 C 588.34 401.04, 591.59 402.10, 596.86 404.47 C 602.13 406.83, 604.87 408.11, 609.04 410.66 C 613.20 413.22, 615.08 414.67, 617.67 417.25 C 620.27 419.83, 621.01 421.25, 622.00 423.57 C 622.99 425.89, 623.05 426.80, 622.60 428.85 C 622.15 430.91, 621.64 431.82, 619.76 433.83 C 617.88 435.83, 616.57 437.05, 613.19 438.89 C 609.82 440.73, 607.53 441.71, 602.89 443.03 C 598.25 444.34, 595.33 444.95, 589.98 445.46 C 584.64 445.97, 581.46 445.97, 576.18 445.57 C 570.89 445.16, 568.03 444.71, 563.54 443.44 C 559.06 442.17, 556.91 441.22, 553.77 439.23 C 550.62 437.24, 549.42 436.01, 547.83 433.48 C 546.24 430.95, 545.78 429.66, 545.81 426.59 C 545.84 423.52, 546.70 421.38, 547.99 418.15 C 549.28 414.91, 550.75 413.21, 552.25 410.41 C 553.75 407.61, 555.23 405.70, 555.50 404.17 C 555.77 402.63, 555.04 401.98, 553.59 402.72 C 552.13 403.47, 550.23 405.13, 548.24 407.88 C 546.24 410.64, 544.95 412.74, 543.61 416.50 C 542.26 420.26, 541.34 422.85, 541.52 426.68 C 541.70 430.51, 542.43 432.50, 544.50 435.63 C 546.56 438.76, 548.21 440.12, 551.85 442.33 C 555.48 444.54, 557.84 445.37, 562.66 446.66 C 567.48 447.95, 570.41 448.35, 575.93 448.77 C 581.45 449.19, 584.69 449.20, 590.27 448.77 C 595.85 448.33, 598.85 447.81, 603.83 446.60 C 608.81 445.38, 611.26 444.59, 615.15 442.68 C 619.04 440.77, 620.90 439.65, 623.26 437.06 C 625.63 434.46, 626.43 432.74, 626.96 429.70 C 627.50 426.66, 627.31 424.86, 625.95 421.84 C 624.60 418.82, 623.25 417.37, 620.20 414.59 C 617.14 411.81, 615.09 410.50, 610.67 407.93 C 606.24 405.36, 603.44 404.14, 598.07 401.75 C 592.70 399.36, 589.44 398.28, 583.82 395.99 C 578.21 393.71, 575.00 392.63, 569.99 390.32 C 564.99 388.00, 562.35 386.69, 558.80 384.40 C 555.25 382.11, 553.93 380.80, 552.24 378.86 C 550.54 376.92, 550.23 376.41, 550.33 374.70 C 550.42 372.99, 551.09 372.15, 552.73 370.32 C 554.36 368.48, 555.60 367.18, 558.51 365.53 C 561.42 363.88, 563.60 363.08, 567.29 362.05 C 570.97 361.02, 573.19 360.55, 576.93 360.36 C 580.67 360.17, 582.61 360.35, 585.99 361.10 C 589.38 361.84, 591.12 362.87, 593.85 364.09 C 596.59 365.30, 597.60 366.20, 599.67 367.17 C 601.74 368.15, 602.98 369.00, 604.20 368.96 C 605.42 368.92, 606.09 368.22, 605.77 366.97" style="stroke: black; fill: black;"/><path d="M 653.94,302.13 C 653.13 302.74, 652.32 303.27, 651.91 305.61 C 651.51 307.95, 651.60 309.48, 651.92 313.84 C 652.23 318.21, 652.65 321.12, 653.47 327.44 C 654.29 333.76, 654.91 337.69, 656.02 345.43 C 657.13 353.18, 657.78 357.81, 659.03 366.17 C 660.29 374.52, 661.01 379.15, 662.30 387.21 C 663.58 395.27, 664.28 399.42, 665.48 406.46 C 666.67 413.51, 667.37 417.11, 668.27 422.43 C 669.17 427.75, 669.22 430.04, 669.98 433.06 C 670.74 436.08, 671.32 436.71, 672.07 437.55 C 672.81 438.39, 673.12 437.83, 673.69 437.26 C 674.25 436.69, 674.90 435.61, 674.88 434.69 C 674.87 433.77, 674.71 432.72, 673.61 432.64 C 672.52 432.56, 670.17 433.47, 669.42 434.27 C 668.67 435.07, 669.25 435.94, 669.87 436.64 C 670.49 437.35, 671.65 437.71, 672.51 437.79 C 673.37 437.87, 673.90 438.16, 674.16 437.04 C 674.43 435.92, 674.46 435.21, 673.83 432.18 C 673.20 429.14, 672.24 427.10, 671.02 421.88 C 669.80 416.66, 669.06 413.06, 667.74 406.06 C 666.41 399.06, 665.70 394.91, 664.39 386.87 C 663.08 378.83, 662.37 374.20, 661.19 365.85 C 660.01 357.50, 659.40 352.86, 658.48 345.11 C 657.57 337.36, 657.07 333.41, 656.63 327.12 C 656.18 320.83, 656.28 317.91, 656.27 313.68 C 656.25 309.44, 656.63 308.18, 656.56 305.95 C 656.50 303.73, 656.46 303.30, 655.94 302.53 C 655.41 301.77, 654.74 301.51, 653.94 302.13" style="stroke: black; fill: black;"/><path d="M 632.34,384.22 C 633.26 384.52, 633.81 384.50, 635.95 383.90 C 638.09 383.30, 639.31 382.49, 643.04 381.21 C 646.77 379.94, 649.32 378.91, 654.60 377.54 C 659.88 376.16, 663.29 375.42, 669.44 374.33 C 675.60 373.24, 679.18 372.73, 685.36 372.08 C 691.54 371.44, 694.84 371.22, 700.32 371.10 C 705.81 370.98, 708.43 371.12, 712.79 371.47 C 717.14 371.83, 719.19 372.59, 722.11 372.87 C 725.03 373.15, 725.85 372.96, 727.40 372.89 C 728.95 372.81, 729.32 372.80, 729.86 372.49 C 730.40 372.17, 730.50 371.82, 730.11 371.31 C 729.72 370.79, 729.40 370.51, 727.90 369.92 C 726.40 369.33, 725.60 368.76, 722.61 368.38 C 719.62 368.00, 717.42 368.06, 712.94 368.02 C 708.47 367.97, 705.80 367.90, 700.23 368.14 C 694.65 368.39, 691.32 368.61, 685.07 369.25 C 678.81 369.88, 675.21 370.38, 668.95 371.32 C 662.69 372.26, 659.25 372.87, 653.78 373.94 C 648.32 375.00, 645.57 375.54, 641.63 376.64 C 637.69 377.74, 636.13 378.28, 634.09 379.43 C 632.04 380.57, 631.74 381.42, 631.39 382.38 C 631.04 383.33, 631.43 383.91, 632.34 384.22" style="stroke: black; fill: black;"/><path d="M 737.13,362.62 C 736.27 363.23, 735.49 363.90, 734.94 366.15 C 734.38 368.41, 734.23 370.02, 734.36 373.88 C 734.48 377.74, 734.82 380.43, 735.56 385.47 C 736.29 390.52, 736.98 393.68, 738.03 399.12 C 739.09 404.56, 739.73 407.69, 740.83 412.66 C 741.94 417.63, 742.47 420.13, 743.57 423.98 C 744.67 427.83, 745.01 429.90, 746.33 431.90 C 747.65 433.90, 748.78 433.97, 750.17 433.99 C 751.56 434.01, 752.56 433.08, 753.28 431.99 C 754.01 430.90, 754.35 429.35, 753.81 428.52 C 753.26 427.69, 751.36 427.43, 750.56 427.85 C 749.76 428.27, 749.85 429.74, 749.80 430.62 C 749.75 431.49, 750.28 432.33, 750.32 432.23 C 750.36 432.13, 750.57 432.00, 749.99 430.12 C 749.42 428.23, 748.62 426.46, 747.46 422.81 C 746.31 419.16, 745.41 416.73, 744.22 411.87 C 743.02 407.00, 742.41 403.86, 741.49 398.49 C 740.57 393.12, 740.01 389.94, 739.60 385.01 C 739.19 380.08, 739.41 377.48, 739.45 373.82 C 739.49 370.17, 739.86 368.87, 739.82 366.72 C 739.77 364.58, 739.78 363.92, 739.24 363.10 C 738.70 362.27, 737.99 362.01, 737.13 362.62" style="stroke: black; fill: black;"/><path d="M 744.64,313.26 C 745.15 313.54, 744.76 313.01, 744.33 313.47 C 743.91 313.92, 742.62 315.22, 742.53 315.53 C 742.43 315.85, 743.14 316.05, 743.85 315.04 C 744.55 314.04, 745.81 311.73, 746.05 310.50 C 746.30 309.27, 745.79 308.82, 745.07 308.89 C 744.35 308.97, 743.12 310.25, 742.45 310.88 C 741.79 311.51, 741.31 311.58, 741.75 312.05 C 742.19 312.52, 744.12 312.97, 744.64 313.26" style="stroke: black; fill: black;"/><path d="M 796.18,361.34 C 795.40 361.97, 794.77 362.60, 794.37 364.77 C 793.97 366.93, 794.00 368.37, 794.17 372.16 C 794.33 375.94, 794.69 378.56, 795.21 383.68 C 795.73 388.80, 796.07 391.99, 796.76 397.75 C 797.44 403.52, 797.89 406.96, 798.63 412.52 C 799.36 418.09, 799.79 421.14, 800.45 425.58 C 801.11 430.03, 801.04 432.16, 801.93 434.75 C 802.83 437.34, 803.76 438.12, 804.93 438.51 C 806.09 438.91, 807.11 438.53, 807.77 436.73 C 808.42 434.93, 808.41 433.30, 808.21 429.51 C 808.01 425.71, 807.29 423.01, 806.77 417.75 C 806.26 412.49, 805.88 409.09, 805.63 403.21 C 805.38 397.34, 805.32 393.87, 805.51 388.36 C 805.71 382.86, 805.86 380.07, 806.59 375.69 C 807.33 371.31, 807.84 369.48, 809.19 366.45 C 810.54 363.41, 811.37 362.37, 813.34 360.54 C 815.30 358.71, 816.34 358.15, 819.01 357.29 C 821.68 356.42, 823.25 356.10, 826.69 356.21 C 830.12 356.32, 832.23 356.50, 836.19 357.84 C 840.15 359.18, 842.48 360.18, 846.48 362.89 C 850.49 365.61, 852.65 367.43, 856.22 371.42 C 859.80 375.41, 861.57 377.91, 864.36 382.86 C 867.15 387.81, 868.32 390.79, 870.18 396.17 C 872.05 401.55, 872.65 404.57, 873.67 409.76 C 874.68 414.94, 874.84 417.60, 875.27 422.10 C 875.70 426.60, 875.58 428.72, 875.80 432.27 C 876.02 435.82, 875.81 437.39, 876.39 439.86 C 876.97 442.33, 877.65 443.29, 878.70 444.61 C 879.74 445.94, 880.78 446.36, 881.60 446.50 C 882.43 446.64, 882.82 446.02, 882.84 445.32 C 882.86 444.61, 882.08 444.23, 881.69 442.96 C 881.31 441.69, 881.26 441.18, 880.90 438.97 C 880.55 436.75, 880.37 435.33, 879.93 431.87 C 879.48 428.42, 879.33 426.24, 878.68 421.69 C 878.03 417.15, 877.82 414.44, 876.68 409.14 C 875.53 403.84, 874.90 400.75, 872.95 395.20 C 871.01 389.65, 869.82 386.58, 866.94 381.41 C 864.07 376.24, 862.28 373.62, 858.59 369.34 C 854.89 365.07, 852.69 363.09, 848.48 360.05 C 844.27 357.01, 841.84 355.78, 837.52 354.14 C 833.21 352.49, 830.89 352.06, 826.89 351.83 C 822.90 351.59, 820.88 351.82, 817.57 352.94 C 814.25 354.07, 812.70 355.04, 810.32 357.45 C 807.94 359.85, 807.09 361.43, 805.68 364.97 C 804.27 368.52, 803.94 370.52, 803.28 375.18 C 802.61 379.83, 802.55 382.63, 802.36 388.25 C 802.17 393.88, 802.24 397.35, 802.31 403.30 C 802.39 409.25, 802.57 412.70, 802.71 418.00 C 802.85 423.31, 802.75 426.11, 803.03 429.84 C 803.31 433.57, 803.53 435.07, 804.11 436.65 C 804.70 438.24, 805.52 438.35, 805.96 437.75 C 806.40 437.16, 806.68 436.23, 806.30 433.67 C 805.92 431.11, 804.96 429.26, 804.07 424.94 C 803.17 420.62, 802.64 417.58, 801.84 412.08 C 801.05 406.57, 800.62 403.13, 800.09 397.40 C 799.56 391.67, 799.34 388.49, 799.19 383.42 C 799.03 378.35, 799.30 375.73, 799.30 372.04 C 799.30 368.36, 799.40 367.08, 799.20 364.99 C 799.00 362.91, 798.89 362.35, 798.28 361.62 C 797.68 360.89, 796.96 360.71, 796.18 361.34" style="stroke: black; fill: black;"/><path d="M 971.03,372.68 C 971.27 371.48, 970.95 370.04, 970.02 367.94 C 969.10 365.84, 968.44 364.32, 966.39 362.16 C 964.35 359.99, 962.77 358.64, 959.81 357.11 C 956.85 355.58, 955.15 355.03, 951.59 354.51 C 948.02 354.00, 946.05 353.94, 941.97 354.54 C 937.89 355.14, 935.59 355.56, 931.20 357.51 C 926.81 359.45, 924.30 360.80, 920.01 364.26 C 915.71 367.73, 913.35 370.03, 909.73 374.83 C 906.12 379.64, 904.26 382.61, 901.92 388.28 C 899.59 393.96, 898.61 397.36, 898.07 403.18 C 897.52 409.01, 897.78 412.32, 899.22 417.42 C 900.66 422.53, 902.07 425.05, 905.27 428.72 C 908.48 432.38, 910.79 433.87, 915.24 435.76 C 919.69 437.65, 922.52 438.06, 927.51 438.18 C 932.50 438.29, 935.29 437.75, 940.19 436.33 C 945.09 434.91, 947.69 433.81, 952.00 431.08 C 956.32 428.36, 958.41 426.55, 961.78 422.71 C 965.14 418.87, 966.66 416.51, 968.81 411.88 C 970.96 407.25, 971.71 404.51, 972.53 399.56 C 973.34 394.61, 973.27 391.78, 972.88 387.12 C 972.49 382.45, 971.84 379.99, 970.58 376.24 C 969.32 372.49, 968.51 370.50, 966.59 368.37 C 964.67 366.24, 963.02 365.55, 960.98 365.59 C 958.94 365.63, 957.44 366.34, 956.37 368.58 C 955.30 370.82, 955.31 372.74, 955.65 376.80 C 955.99 380.86, 956.74 383.56, 958.07 388.89 C 959.41 394.21, 960.34 397.58, 962.33 403.43 C 964.32 409.27, 965.61 412.61, 968.01 418.11 C 970.40 423.61, 971.83 426.36, 974.32 430.93 C 976.82 435.50, 978.12 437.52, 980.48 440.96 C 982.85 444.40, 983.98 445.90, 986.14 448.15 C 988.30 450.40, 989.50 451.16, 991.28 452.20 C 993.06 453.25, 994.12 453.42, 995.05 453.37 C 995.99 453.32, 996.24 452.77, 995.95 451.95 C 995.66 451.12, 994.92 450.64, 993.62 449.24 C 992.31 447.84, 991.47 447.04, 989.43 444.96 C 987.38 442.87, 985.86 441.93, 983.38 438.82 C 980.91 435.71, 979.58 433.78, 977.05 429.40 C 974.52 425.02, 973.08 422.31, 970.74 416.92 C 968.39 411.53, 967.13 408.22, 965.34 402.45 C 963.55 396.68, 962.78 393.28, 961.79 388.07 C 960.80 382.86, 960.70 380.08, 960.40 376.41 C 960.10 372.74, 960.23 371.35, 960.29 369.72 C 960.35 368.10, 960.19 367.98, 960.70 368.29 C 961.21 368.60, 961.67 369.38, 962.85 371.26 C 964.03 373.14, 965.32 374.44, 966.60 377.68 C 967.88 380.93, 968.73 383.22, 969.25 387.49 C 969.76 391.76, 969.86 394.43, 969.17 399.03 C 968.48 403.63, 967.79 406.19, 965.82 410.49 C 963.84 414.80, 962.42 416.99, 959.31 420.55 C 956.19 424.11, 954.25 425.77, 950.24 428.28 C 946.23 430.80, 943.79 431.80, 939.26 433.10 C 934.73 434.41, 932.13 434.88, 927.58 434.80 C 923.03 434.72, 920.50 434.35, 916.52 432.71 C 912.53 431.08, 910.53 429.84, 907.65 426.62 C 904.77 423.40, 903.46 421.23, 902.12 416.59 C 900.77 411.96, 900.45 408.89, 900.94 403.45 C 901.44 398.01, 902.34 394.74, 904.58 389.38 C 906.81 384.02, 908.63 381.16, 912.12 376.66 C 915.61 372.15, 917.94 369.99, 922.04 366.86 C 926.15 363.72, 928.56 362.58, 932.65 360.97 C 936.74 359.36, 938.87 359.13, 942.48 358.82 C 946.09 358.50, 947.81 358.73, 950.69 359.40 C 953.57 360.08, 954.68 360.73, 956.88 362.18 C 959.08 363.63, 959.97 364.90, 961.68 366.66 C 963.39 368.42, 964.01 369.52, 965.43 370.97 C 966.86 372.43, 967.69 373.60, 968.81 373.94 C 969.93 374.28, 970.79 373.88, 971.03 372.68" style="stroke: black; fill: black;"/><path d="M 1049.24,444.87 C 1049.78 444.05, 1049.84 443.23, 1049.74 443.03 C 1049.64 442.84, 1049.18 443.31, 1048.73 443.88 C 1048.28 444.45, 1047.78 445.45, 1047.50 445.89 C 1047.22 446.34, 1047.23 446.71, 1047.34 446.11 C 1047.44 445.50, 1048.22 443.54, 1048.04 442.87 C 1047.87 442.20, 1047.05 442.23, 1046.46 442.78 C 1045.88 443.32, 1045.37 444.65, 1045.10 445.61 C 1044.84 446.57, 1044.76 447.26, 1045.15 447.56 C 1045.53 447.86, 1046.22 447.64, 1047.04 447.10 C 1047.85 446.56, 1048.70 445.68, 1049.24 444.87" style="stroke: black; fill: black;"/></svg>